<svg xmlns="http://www.w3.org/2000/svg" version="1.1" xmlns:xlink="http://www.w3.org/1999/xlink" width="386" height="231"><svg version="1.1" xmlns="http://www.w3.org/2000/svg" width="386" height="231">
<path d="M0 0 C3.18849609 -0.00580078 3.18849609 -0.00580078 6.44140625 -0.01171875 C8.63410156 -0.00011719 10.82679688 0.01148438 13.0859375 0.0234375 C15.31730469 0.01183594 17.54867187 0.00023437 19.84765625 -0.01171875 C21.96042969 -0.00785156 24.07320312 -0.00398437 26.25 0 C28.18568848 0.00338379 30.12137695 0.00676758 32.11572266 0.01025391 C33.54964355 0.13835449 34.98356445 0.26645508 36.4609375 0.3984375 C38.29282943 5.8941133 33.39309812 11.1811028 30.6484375 15.9609375 C29.95500244 17.18876953 29.26156738 18.41660156 28.54711914 19.68164062 C26.52651935 23.2585881 24.4946739 26.82894794 22.4609375 30.3984375 C15.2670398 43.13163642 8.45404218 56.03674641 1.75390625 69.03515625 C-0.9082387 74.17944347 -3.60672579 79.29806768 -6.3515625 84.3984375 C-9.4282471 89.78963461 -9.4282471 89.78963461 -10.5390625 93.3984375 C-2.57175788 93.30406361 5.39529562 93.19779443 13.36230469 93.08105469 C17.38728834 93.02447283 21.41239667 92.97699528 25.4375 92.9296875 C63.51738305 93.14546174 63.51738305 93.14546174 93.4609375 72.3984375 C97.61735818 64.08559614 98.2404932 58.81099695 94.4609375 50.3984375 C86.27068561 44.93826957 82.16079328 45.25822072 72.296875 45.1875 C69.62238953 45.15944849 66.94791044 45.13078416 64.2734375 45.1015625 C60.04199283 45.06015507 55.81066931 45.02328099 51.57910156 44.99707031 C47.50560792 44.96962982 43.43266125 44.9237764 39.359375 44.875 C36.91192871 44.85518066 34.46448242 44.83536133 31.94287109 44.81494141 C30.13383301 44.67749512 28.32479492 44.54004883 26.4609375 44.3984375 C23.10512032 34.33098597 41.75049599 11.57258943 47.4609375 2.3984375 C52.67452406 -2.81514906 67.07831783 0.07147887 74.16015625 0.08276367 C78.28412922 0.08589812 82.40736717 0.06256849 86.53125 0.03710938 C89.14546875 0.03646484 91.7596875 0.03582031 94.453125 0.03515625 C96.84933105 0.03217529 99.24553711 0.02919434 101.71435547 0.02612305 C123.27350472 1.21587852 140.00771133 11.60529171 150.7109375 30.3359375 C158.33130064 48.02606622 155.46331232 68.82903917 144.4609375 84.3984375 C122.38743587 110.57130371 90.28451469 121.48952064 56.4609375 120.3984375 C71.37628744 135.31378744 93.00977389 145.66118593 114.3359375 145.2734375 C123.51390651 146.95918691 126.52468549 153.11469444 131.4609375 160.3984375 C134.01243109 163.78176599 136.57545659 167.15642094 139.1484375 170.5234375 C143.32672795 176.10015884 147.40241556 181.68791217 151.2109375 187.5234375 C153.98177083 192.35677083 153.98177083 192.35677083 157.4609375 194.3984375 C157.1309375 195.3884375 156.8009375 196.3784375 156.4609375 197.3984375 C150.65070597 197.73143534 144.950544 197.86650775 139.13671875 197.8671875 C137.37345749 197.87480103 135.61019623 197.88241455 133.79350281 197.89025879 C130.04488544 197.90109907 126.29623778 197.90389711 122.54760742 197.89941406 C116.84306232 197.89844928 111.13989489 197.93987738 105.43554688 197.984375 C101.79427363 197.9895874 98.15299572 197.99227011 94.51171875 197.9921875 C91.96714714 198.0167804 91.96714714 198.0167804 89.37117004 198.04187012 C66.60117991 197.91086673 52.30279203 188.01353788 38.4609375 170.3984375 C37.53152344 169.22410156 36.60210937 168.04976562 35.64453125 166.83984375 C33.79109323 164.48631257 31.94330604 162.12831885 30.1015625 159.765625 C24.69026715 152.86542295 19.07422346 146.13438065 13.4609375 139.3984375 C13.4609375 138.7384375 13.4609375 138.0784375 13.4609375 137.3984375 C-25.1490625 137.3984375 -63.7590625 137.3984375 -103.5390625 137.3984375 C-103.5390625 131.49795485 -100.83215346 127.57467026 -98.1640625 122.3359375 C-97.16632813 120.36496094 -96.16859375 118.39398438 -95.140625 116.36328125 C-92.47076357 111.20019781 -89.76648661 106.06209133 -87.0390625 100.9296875 C-82.73608037 92.77250798 -78.59320321 84.5412476 -74.5 76.27734375 C-73.88363678 75.03440048 -73.26727356 73.79145721 -72.63223267 72.510849 C-70.07765701 67.35642867 -67.52481376 62.20120742 -64.98339844 57.0402832 C-63.10052885 53.21974266 -61.20731267 49.4044722 -59.3125 45.58984375 C-57.64840088 42.22067749 -57.64840088 42.22067749 -55.95068359 38.78344727 C-43.50592644 15.49249737 -27.41239562 0.04764217 0 0 Z " fill="#214BAC" transform="translate(153.5390625,13.6015625)"></path>
<path d="M0 0 C14.25230274 -1.35736217 29.47019107 3.06826065 43 7 C45.09408203 7.60714844 45.09408203 7.60714844 47.23046875 8.2265625 C57.8742343 11.49693721 57.8742343 11.49693721 59 16 C56.5703125 19.5390625 56.5703125 19.5390625 53.125 23.625 C51.93003906 25.04941406 50.73507812 26.47382812 49.50390625 27.94140625 C45.40328349 32.69117999 41.23720679 37.37166643 37 42 C35.865625 43.36125 34.73125 44.7225 33.5625 46.125 C31 49 31 49 29 49 C28.34 50.32 27.68 51.64 27 53 C25.68 54.32 24.36 55.64 23 57 C21.515 56.505 21.515 56.505 20 56 C18.62068966 48.75862069 18.62068966 48.75862069 20 46 C14.2646637 47.57464169 14.2646637 47.57464169 11 50.1875 C6.51423708 53.34155205 1.79665934 55.71305118 -3.12890625 58.10546875 C-5.73887883 59.38280145 -8.33013209 60.69901837 -10.90234375 62.05078125 C-34.98525999 74.62504725 -60.65526161 79.60684304 -85 65 C-84.67 64.01 -84.34 63.02 -84 62 C-79.86216657 61.23249864 -75.72133339 60.47740187 -71.56640625 59.80859375 C-49.88717162 55.9697558 -30.50451091 45.26315757 -14 31 C-12.329375 29.68 -10.65875 28.36 -8.9375 27 C-1.2203003 20.77788138 -1.2203003 20.77788138 6 14 C4.09114076 8.4808939 4.09114076 8.4808939 -1 3 C-0.67 2.01 -0.34 1.02 0 0 Z " fill="#F99018" transform="translate(319,77)"></path>
<path d="M0 0 C2.28736588 -0.00574036 2.28736588 -0.00574036 4.62094116 -0.01159668 C7.84723571 -0.0143215 11.07355214 -0.00692078 14.29980469 0.00976562 C19.26026188 0.03119309 24.21927518 0.00996443 29.1796875 -0.015625 C32.30729489 -0.01298241 35.43490137 -0.00785886 38.5625 0 C40.05721832 -0.00809692 41.55193665 -0.01619385 43.09194946 -0.02453613 C46.61550348 0.00785295 50.13620164 0.2472056 53.6484375 0.53125 C55.63063901 8.46005606 48.80762943 16.87312576 45.2109375 23.84375 C44.31955078 25.62716797 43.42816406 27.41058594 42.50976562 29.24804688 C41.1881543 31.82649414 41.1881543 31.82649414 39.83984375 34.45703125 C39.03748291 36.02880127 38.23512207 37.60057129 37.40844727 39.2199707 C27.30232482 55.00626139 12.6678467 51.78080131 -4.08764648 51.82641602 C-8.53204529 51.84372267 -12.97571812 51.88763374 -17.41992188 51.93164062 C-20.22395285 51.94175922 -23.02799015 51.95027791 -25.83203125 51.95703125 C-28.39879639 51.97161377 -30.96556152 51.98619629 -33.61010742 52.0012207 C-35.5047876 51.84613037 -37.39946777 51.69104004 -39.3515625 51.53125 C-40.99526304 44.95644782 -37.02771931 40.60032141 -33.9140625 34.78125 C-32.6162072 32.33776001 -31.31932831 29.89375116 -30.0234375 27.44921875 C-28.81171875 25.16628906 -27.6 22.88335937 -26.3515625 20.53125 C-24.77600818 17.39193444 -23.21043747 14.24754106 -21.6640625 11.09375 C-15.83907714 -0.44631535 -12.19503651 -0.06624021 0 0 Z " fill="#214AAB" transform="translate(61.3515625,159.46875)"></path>
<path d="M0 0 C2.475 0.99 2.475 0.99 5 2 C2.1463877 13.41444919 -10.1692928 23.59631422 -18 32 C-19.65 33.98 -21.3 35.96 -23 38 C-23.66 38 -24.32 38 -25 38 C-25.66 39.32 -26.32 40.64 -27 42 C-28.32 43.32 -29.64 44.64 -31 46 C-31.66 45.67 -32.32 45.34 -33 45 C-29.08433313 40.56224422 -25.18576779 36.18576779 -21 32 C-19.35 30.02 -17.7 28.04 -16 26 C-14.35 24.35 -12.7 22.7 -11 21 C-10.34 20.01 -9.68 19.02 -9 18 C-8.34 18 -7.68 18 -7 18 C-6.34 16.68 -5.68 15.36 -5 14 C-1.40178571 7.26785714 -1.40178571 7.26785714 2 5 C2 4.34 2 3.68 2 3 C1.34 2.67 0.68 2.34 0 2 C0 1.34 0 0.68 0 0 Z " fill="#E9A352" transform="translate(373,88)"></path>
<path d="M0 0 C0 0.66 0 1.32 0 2 C-1.98 2.66 -3.96 3.32 -6 4 C-8.34501227 5.65019382 -10.67753814 7.31821727 -13 9 C-20.6137931 13.19310345 -20.6137931 13.19310345 -23 12 C-21.329375 10.948125 -19.65875 9.89625 -17.9375 8.8125 C-14.59688462 6.66747329 -11.28870645 4.4607936 -8.125 2.0625 C-5 0 -5 0 0 0 Z " fill="#F0AE58" transform="translate(339,121)"></path>
</svg><style>@media (prefers-color-scheme: light) { :root { filter: none; } }
@media (prefers-color-scheme: dark) { :root { filter: none; } }
</style></svg>